Coordinates
version=1
nRows=17
nColumns=40
inDegrees=yes

Units are S.I. units (second, meters, Newtons, ...)
If the header above contains a line with 'inDegrees', this indicates whether rotational values are in degrees (yes) or radians (no).

endheader
time	pelvis_tilt	pelvis_list	pelvis_rotation	pelvis_tx	pelvis_ty	pelvis_tz	hip_flexion_r	hip_adduction_r	hip_rotation_r	knee_angle_r	knee_angle_r_beta	ankle_angle_r	subtalar_angle_r	mtp_angle_r	hip_flexion_l	hip_adduction_l	hip_rotation_l	knee_angle_l	knee_angle_l_beta	ankle_angle_l	subtalar_angle_l	mtp_angle_l	lumbar_extension	lumbar_bending	lumbar_rotation	arm_flex_r	arm_add_r	arm_rot_r	elbow_flex_r	pro_sup_r	wrist_flex_r	wrist_dev_r	arm_flex_l	arm_add_l	arm_rot_l	elbow_flex_l	pro_sup_l	wrist_flex_l	wrist_dev_l
      1.94000000	      0.18019926	     -4.60467012	     89.31449194	      0.25185590	      0.91970892	     -0.03398440	     13.27925735	      2.84863995	      4.88040417	     14.12199085	      0.24647524	      8.98214177	      0.00000000	      0.00000000	     23.98015300	     -6.73819497	     -2.55747509	     71.04333810	      1.23994016	      2.04848695	      0.00000000	      0.00000000	     -3.79729168	      0.05797335	     -4.70576578	      0.00000000	      0.00000000	      0.00000000	      0.00000000	      0.00000000	      0.00000000	      0.00000000	      0.00000000	      0.00000000	      0.00000000	      0.00000000	      0.00000000	      0.00000000	      0.00000000
      1.95000000	      0.09165542	     -4.77832949	     89.25832213	      0.25205595	      0.92029997	     -0.04114361	     12.59124562	      2.75329371	      4.89866811	     13.45667065	      0.23486321	      9.18866961	     -0.00000000	     -0.00000000	     25.52254033	     -6.63142306	     -2.49718865	     70.56192005	      1.23153783	      2.54212457	     -0.00000000	      0.00000000	     -3.70354143	     -0.01175551	     -4.32912936	      0.00000000	     -0.00000000	     -0.00000000	      0.00000000	      0.00000000	     -0.00000000	      0.00000000	     -0.00000000	     -0.00000000	      0.00000000	      0.00000000	      0.00000000	      0.00000000	     -0.00000000
      1.96000000	      0.12232406	     -4.90153008	     89.15885236	      0.25244415	      0.92081038	     -0.04821790	     11.80102936	      2.83235030	      5.28285465	     12.68417259	      0.22138057	      9.26965886	      0.00000000	      0.00000000	     26.95894688	     -6.70962352	     -2.45540297	     69.92990081	      1.22050701	      3.54246058	      0.00000000	      0.00000000	     -3.70292769	      0.03387145	     -4.02820351	      0.00000000	      0.00000000	      0.00000000	      0.00000000	      0.00000000	      0.00000000	      0.00000000	      0.00000000	      0.00000000	      0.00000000	      0.00000000	      0.00000000	      0.00000000	      0.00000000
      1.97000000	      0.06210190	     -5.11117871	     89.07702268	      0.25256226	      0.92111699	     -0.05530594	     11.23236301	      2.74443970	      5.12920275	     12.14878333	      0.21203627	      9.44475833	      0.00000000	      0.00000000	     28.38971907	     -6.63232920	     -2.41951865	     68.95195672	      1.20343867	      3.83129046	      0.00000000	      0.00000000	     -3.58727590	      0.00400732	     -3.58975113	      0.00000000	      0.00000000	      0.00000000	      0.00000000	      0.00000000	     -0.00000000	      0.00000000	     -0.00000000	     -0.00000000	      0.00000000	      0.00000000	      0.00000000	      0.00000000	     -0.00000000
      1.98000000	      0.01762586	     -5.14892046	     88.98403408	      0.25274868	      0.92162833	     -0.06252500	     10.29926598	      2.71438240	      5.53172237	     11.29400710	      0.19711761	      9.56050425	      0.00000000	      0.00000000	     29.53025276	     -6.56473583	     -2.38212282	     67.77314937	      1.18286460	      4.53645513	      0.00000000	      0.00000000	     -3.66842481	     -0.04406429	     -3.26818836	      0.00000000	      0.00000000	      0.00000000	      0.00000000	      0.00000000	      0.00000000	      0.00000000	      0.00000000	      0.00000000	      0.00000000	      0.00000000	      0.00000000	      0.00000000	      0.00000000
      1.99000000	     -0.05185202	     -5.14465000	     88.88984578	      0.25279596	      0.92212316	     -0.06984117	      9.37595901	      2.61733801	      5.62942188	     10.54480415	      0.18404155	      9.66057736	      0.00000000	      0.00000000	     30.49929782	     -6.45030282	     -2.37001326	     66.28942068	      1.15696865	      4.90606154	      0.00000000	      0.00000000	     -3.79547284	     -0.10241658	     -2.85332558	      0.00000000	      0.00000000	      0.00000000	      0.00000000	      0.00000000	      0.00000000	      0.00000000	      0.00000000	      0.00000000	      0.00000000	      0.00000000	      0.00000000	      0.00000000	      0.00000000
      2.00000000	     -0.08658112	     -5.35349130	     88.80525236	      0.25281534	      0.92213335	     -0.07698176	      8.74438024	      2.56139125	      5.74933876	      9.90029121	      0.17279268	      9.83869980	      0.00000000	      0.00000000	     31.66404635	     -6.36539869	     -2.33318849	     64.64448750	      1.12825915	      5.21534579	      0.00000000	      0.00000000	     -3.69415373	     -0.11922884	     -2.51162568	      0.00000000	      0.00000000	      0.00000000	      0.00000000	      0.00000000	      0.00000000	      0.00000000	      0.00000000	      0.00000000	      0.00000000	      0.00000000	      0.00000000	      0.00000000	      0.00000000
      2.01000000	     -0.14527025	     -5.31940408	     88.69928703	      0.25281349	      0.92249293	     -0.08441239	      7.76776959	      2.46905173	      5.92163677	      9.12508313	      0.15926275	      9.93512490	      0.00000000	      0.00000000	     32.39196503	     -6.26198263	     -2.37009185	     62.69765791	      1.09428056	      5.45117076	      0.00000000	      0.00000000	     -3.84721354	     -0.17313208	     -2.09874946	      0.00000000	      0.00000000	      0.00000000	      0.00000000	      0.00000000	      0.00000000	      0.00000000	      0.00000000	      0.00000000	      0.00000000	      0.00000000	      0.00000000	      0.00000000	      0.00000000
      2.02000000	     -0.13807053	     -5.54101174	     88.61562707	      0.25277826	      0.92228034	     -0.09164886	      7.14424699	      2.44901052	      6.03965895	      8.48077070	      0.14801737	     10.11126943	      0.00000000	      0.00000000	     33.37214899	     -6.22517123	     -2.36532274	     60.63042393	      1.05820052	      5.62391571	      0.00000000	      0.00000000	     -3.72566247	     -0.15005099	     -1.77518374	      0.00000000	      0.00000000	      0.00000000	      0.00000000	      0.00000000	      0.00000000	      0.00000000	      0.00000000	      0.00000000	      0.00000000	      0.00000000	      0.00000000	      0.00000000	      0.00000000
      2.03000000	     -0.18249883	     -5.49396397	     88.50539182	      0.25270852	      0.92245552	     -0.09920765	      6.14454130	      2.35644527	      6.19940492	      7.70408954	      0.13446173	     10.20625829	      0.00000000	      0.00000000	     33.87380446	     -6.14167767	     -2.45937253	     58.25168737	      1.01668374	      5.64844462	      0.00000000	      0.00000000	     -3.89607225	     -0.19627870	     -1.38708799	      0.00000000	      0.00000000	      0.00000000	      0.00000000	      0.00000000	      0.00000000	      0.00000000	      0.00000000	      0.00000000	      0.00000000	      0.00000000	      0.00000000	      0.00000000	      0.00000000
      2.04000000	     -0.16429295	     -5.65716845	     88.41636890	      0.25261764	      0.92213914	     -0.10662358	      5.42003748	      2.33957259	      6.38727950	      7.01214253	      0.12238497	     10.37381563	      0.00000000	      0.00000000	     34.56575454	     -6.12380671	     -2.53682530	     55.75022137	      0.97302492	      5.59686166	      0.00000000	      0.00000000	     -3.84138710	     -0.16373222	     -1.08913845	      0.00000000	      0.00000000	      0.00000000	      0.00000000	      0.00000000	      0.00000000	      0.00000000	      0.00000000	      0.00000000	      0.00000000	      0.00000000	      0.00000000	      0.00000000	      0.00000000
      2.05000000	     -0.15924444	     -5.68061324	     88.32788320	      0.25244846	      0.92196616	     -0.11423255	      4.51820192	      2.28917461	      6.51409818	      6.28787437	      0.10974411	     10.49062337	      0.00000000	      0.00000000	     34.96167891	     -6.07977819	     -2.65851866	     53.00991370	      0.92519753	      5.43355934	      0.00000000	      0.00000000	     -3.94814643	     -0.15941303	     -0.72070223	      0.00000000	      0.00000000	      0.00000000	      0.00000000	      0.00000000	      0.00000000	      0.00000000	      0.00000000	      0.00000000	      0.00000000	      0.00000000	      0.00000000	      0.00000000	      0.00000000
      2.06000000	     -0.07765892	     -5.93085666	     88.25761515	      0.25223382	      0.92125728	     -0.12170344	      3.90121265	      2.32661032	      6.69514780	      5.64024653	      0.09844087	     10.68849236	      0.00000000	      0.00000000	     35.57775123	     -6.11451746	     -2.75944290	     50.19014828	      0.87598334	      5.20216950	      0.00000000	      0.00000000	     -3.81300695	     -0.06571275	     -0.47931208	      0.00000000	      0.00000000	      0.00000000	      0.00000000	      0.00000000	      0.00000000	      0.00000000	      0.00000000	      0.00000000	      0.00000000	      0.00000000	      0.00000000	      0.00000000	      0.00000000
      2.07000000	      0.29067159	     -6.35250474	     88.15101833	      0.25229349	      0.91998213	     -0.12895686	      3.68625794	      2.71129505	      6.39180633	      5.37303757	      0.09377720	     10.79753347	      0.00000000	      0.00000000	     36.40543828	     -6.55954230	     -2.93121639	     47.45000854	      0.82815888	      5.46785189	      0.00000000	      0.00000000	     -3.50173073	      0.36691479	     -0.22336158	      0.00000000	      0.00000000	      0.00000000	      0.00000000	      0.00000000	      0.00000000	      0.00000000	      0.00000000	      0.00000000	      0.00000000	      0.00000000	      0.00000000	      0.00000000	      0.00000000
      2.08000000	     -0.04101937	     -5.96237276	     88.08894575	      0.25165620	      0.92038180	     -0.13740777	      2.06048817	      2.22241395	      6.98693801	      4.22153416	      0.07367967	     10.95235743	      0.00000000	      0.00000000	     35.83036987	     -6.04712553	     -3.20994748	     43.85544522	      0.76542191	      4.35960387	      0.00000000	      0.00000000	     -4.02374841	     -0.02838012	      0.09714299	      0.00000000	      0.00000000	      0.00000000	      0.00000000	      0.00000000	      0.00000000	      0.00000000	      0.00000000	      0.00000000	      0.00000000	      0.00000000	      0.00000000	      0.00000000	      0.00000000
      2.09000000	      0.02774879	     -6.08168984	     88.00359622	      0.25129108	      0.91956057	     -0.14529781	      1.28249371	      2.21960422	      7.14769856	      3.58912459	      0.06264204	     11.14874603	      0.00000000	      0.00000000	     35.95981666	     -6.05669552	     -3.44839946	     40.52829821	      0.70735224	      3.74246093	      0.00000000	      0.00000000	     -4.02130843	      0.04462463	      0.35250588	      0.00000000	      0.00000000	      0.00000000	      0.00000000	      0.00000000	      0.00000000	      0.00000000	      0.00000000	      0.00000000	      0.00000000	      0.00000000	      0.00000000	      0.00000000	      0.00000000
      2.10000000	      0.10327237	     -6.25272567	     87.93341728	      0.25082198	      0.91852400	     -0.15329561	      0.56209142	      2.21692876	      7.32806327	      2.97736187	      0.05196477	     11.37797280	      0.00000000	      0.00000000	     36.06675933	     -6.04582630	     -3.66178773	     37.12362338	      0.64792946	      3.08456134	      0.00000000	      0.00000000	     -3.94738092	      0.13048219	      0.51396177	      0.00000000	      0.00000000	      0.00000000	      0.00000000	      0.00000000	      0.00000000	      0.00000000	      0.00000000	      0.00000000	      0.00000000	      0.00000000	      0.00000000	      0.00000000	      0.00000000
